<?xml version="1.0" encoding="utf-8"?>
<!-- Generator: Adobe Illustrator 14.0.0, SVG Export Plug-In . SVG Version: 6.00 Build 43363)  -->
<!DOCTYPE svg PUBLIC "-//W3C//DTD SVG 1.1//EN" "http://www.w3.org/Graphics/SVG/1.1/DTD/svg11.dtd">
<svg version="1.1" id="Layer_1" xmlns="http://www.w3.org/2000/svg" xmlns:xlink="http://www.w3.org/1999/xlink" x="0px" y="0px"
	 width="24px" height="24px" viewBox="0 0 24 24" enable-background="new 0 0 24 24" xml:space="preserve">
<path d="M11.721,21.762c1.818,0.107,3.082-1.339,3.289-3.032l0.025-0.214c0.017-0.018,0.032-0.038,0.048-0.059
	c0.623-0.836,0.792-1.917,0.459-2.906c-0.005-0.019-0.01-0.036-0.016-0.054c-0.261-0.73-0.56-1.318-0.85-1.887
	c-0.262-0.514-0.511-1.005-0.696-1.548c0.575,0.023,1.118,0.123,1.685,0.226c0.627,0.115,1.275,0.234,2.048,0.275
	c0.02,0.002,0.037,0.001,0.055,0c1.044,0.037,2.032-0.434,2.654-1.269c1.045-1.4,0.755-3.388-0.645-4.431
	c-1.401-1.044-3.39-0.754-4.434,0.646c-0.463,0.622-0.675,1.386-0.612,2.146l-1.351-0.193c-0.535-2.421-1.47-4.812-1.5-4.884
	C11.255,2.57,7.916,2.502,7.774,2.501C7.613,2.498,7.462,2.574,7.367,2.702C7.255,2.873,7.241,3.054,7.313,3.21l2.724,5.912
	L3.593,8.201C3.423,8.177,3.253,8.24,3.142,8.372C3.022,8.499,2.994,8.68,3.045,8.845c0.042,0.135,1.061,3.315,3.127,3.341
	l0.611,0.053c2.035,0.175,2.246,0.193,4.536-0.005l0.569,1.236c-0.746,0.157-1.418,0.579-1.882,1.201
	c-1.044,1.399-0.754,3.388,0.646,4.433c0.508,0.379,1.113,0.592,1.744,0.618c-0.065,0.539-0.497,0.873-0.946,1.11
	C11.02,21.092,11.218,21.776,11.721,21.762z M17.07,8.755c0.33-0.442,0.957-0.535,1.4-0.204c0.442,0.331,0.533,0.957,0.203,1.399
	c-0.329,0.442-0.956,0.534-1.399,0.204C16.832,9.824,16.741,9.198,17.07,8.755z M11.659,10.334c0.166-0.222,0.479-0.267,0.7-0.102
	c0.222,0.166,0.268,0.478,0.102,0.7c-0.165,0.222-0.478,0.268-0.699,0.102C11.541,10.869,11.494,10.556,11.659,10.334z
	 M11.691,15.971c0.33-0.442,0.956-0.534,1.399-0.204s0.534,0.957,0.204,1.399s-0.956,0.534-1.399,0.204
	C11.453,17.04,11.362,16.413,11.691,15.971z"/>
</svg>
